<?xml version="1.0" encoding="UTF-8"?>
<!DOCTYPE svg PUBLIC "-//W3C//DTD SVG 1.1//EN" "http://www.w3.org/Graphics/SVG/1.1/DTD/svg11.dtd">
<!-- Creator: CorelDRAW 2021 (64-Bit) -->
<svg xmlns="http://www.w3.org/2000/svg" xml:space="preserve" width="8.8311mm" height="8.6573mm" version="1.1" style="shape-rendering:geometricPrecision; text-rendering:geometricPrecision; image-rendering:optimizeQuality; fill-rule:evenodd; clip-rule:evenodd"
viewBox="0 0 2.88 2.83"
 xmlns:xlink="http://www.w3.org/1999/xlink"
 xmlns:xodm="http://www.corel.com/coreldraw/odm/2003">
 <defs>
  <style type="text/css">
   <![CDATA[
    .fil0 {fill:#AD9AD6}
   ]]>
  </style>
 </defs>
 <g id="Слой_x0020_1">
  <metadata id="CorelCorpID_0Corel-Layer"/>
  <path class="fil0" d="M1.34 2.64c0.02,-0.13 -0.07,-0.23 -0.18,-0.25 -0.13,-0.02 -0.23,0.07 -0.25,0.18 -0.02,0.13 0.07,0.24 0.18,0.25 0.13,0.02 0.23,-0.08 0.25,-0.18zm0.85 -1.55l0.44 -0 -0 0.19 -0.41 0.06c-0.01,-0.02 -0.01,-0.09 -0.01,-0.12 -0,-0.03 -0.01,-0.1 -0.01,-0.13zm-0.53 0l0.4 -0c0.01,0 0.01,0.04 0.01,0.06l0.02 0.2c-0.04,0.01 -0.34,0.06 -0.37,0.05 -0,-0 -0,-0 -0,-0l-0.07 -0.32zm-0.53 0l0.4 -0c0.01,0.01 0.07,0.33 0.07,0.34l-0.33 0.05 -0.15 -0.39zm1.03 -0.4l0.43 0.03c0.02,0 0.05,-0 0.06,0.01l-0.01 0.23 -0.45 0c-0.01,-0.02 -0.02,-0.23 -0.03,-0.27zm-0.58 -0.04l0.43 0.03c0.04,0 0.03,0 0.04,0.14 0,0.04 0.01,0.1 0.01,0.14l-0.42 0c-0.01,-0.01 -0,0 -0.01,-0.01 -0,-0 -0,-0.02 -0,-0.02l-0.02 -0.12c-0.01,-0.05 -0.03,-0.11 -0.03,-0.16zm-0.62 -0.04l0.5 0.03c0.01,0.05 0.07,0.29 0.06,0.32l-0.43 0 -0.14 -0.35zm-0.41 -0.38l0.5 1.29c-0.05,0.03 -0.1,0.01 -0.21,0.13 -0.19,0.19 -0.09,0.57 0.23,0.61 0.06,0.01 0.61,0 0.68,0 0.28,0 0.57,0 0.85,0 0.11,0 0.23,0.02 0.27,-0.07 0.02,-0.04 0.01,-0.1 -0.02,-0.13 -0.04,-0.04 -0.06,-0.04 -0.13,-0.04l-1.54 0c-0.05,0 -0.11,0.01 -0.15,-0.02 -0.07,-0.04 -0.09,-0.15 0.01,-0.22 0.04,-0.02 0.08,-0.03 0.13,-0.04 0.1,-0.02 0.19,-0.03 0.29,-0.05 0.39,-0.06 0.79,-0.13 1.18,-0.18 0.09,-0.01 0.21,-0.01 0.22,-0.12 0.01,-0.05 0,-0.11 0,-0.16l0.01 -0.5c0,-0.04 0.01,-0.12 -0,-0.16 -0.03,-0.1 -0.15,-0.08 -0.26,-0.09l-0.48 -0.03c-0.43,-0.02 -0.86,-0.06 -1.29,-0.08 -0.01,-0.01 -0.06,-0.15 -0.07,-0.18 -0.05,-0.12 -0.05,-0.2 -0.18,-0.19l-0.38 0c-0.09,0 -0.16,-0.01 -0.2,0.05 -0.04,0.07 -0.02,0.14 0.03,0.17 0.05,0.03 0.16,0.02 0.23,0.02 0.08,0 0.17,-0 0.25,0zm1.82 2.4c0.02,0.11 0.12,0.2 0.25,0.19 0.11,-0.01 0.21,-0.12 0.19,-0.25 -0.02,-0.11 -0.12,-0.2 -0.25,-0.19 -0.11,0.02 -0.2,0.12 -0.19,0.25z"/>
 </g>
</svg>
