<?xml version="1.0" encoding="UTF-8"?>
<!DOCTYPE svg PUBLIC "-//W3C//DTD SVG 1.1//EN" "http://www.w3.org/Graphics/SVG/1.1/DTD/svg11.dtd">
<!-- Creator: CorelDRAW 2021 (64-Bit) -->
<svg xmlns="http://www.w3.org/2000/svg" xml:space="preserve" width="10.6481mm" height="10.648mm" version="1.1" style="shape-rendering:geometricPrecision; text-rendering:geometricPrecision; image-rendering:optimizeQuality; fill-rule:evenodd; clip-rule:evenodd"
viewBox="0 0 4.24 4.24"
 xmlns:xlink="http://www.w3.org/1999/xlink"
 xmlns:xodm="http://www.corel.com/coreldraw/odm/2003">
 <defs>
  <style type="text/css">
   <![CDATA[
    .str0 {stroke:#D6C5F9;stroke-width:0.08;stroke-miterlimit:22.9256}
    .fil1 {fill:#AD9AD6}
    .fil0 {fill:#D6C5F9}
   ]]>
  </style>
 </defs>
 <g id="Слой_x0020_1">
  <metadata id="CorelCorpID_0Corel-Layer"/>
  <circle class="fil0 str0" cx="2.12" cy="2.12" r="2.08"/>
  <path class="fil1" d="M2.12 0.42c0.94,0 1.7,0.76 1.7,1.7 0,0.94 -0.76,1.7 -1.7,1.7 -0.94,0 -1.7,-0.76 -1.7,-1.7 0,-0.94 0.76,-1.7 1.7,-1.7zm-0 0.19c0.84,0 1.51,0.68 1.51,1.51 0,0.84 -0.68,1.51 -1.51,1.51 -0.84,0 -1.51,-0.68 -1.51,-1.51 0,-0.84 0.68,-1.51 1.51,-1.51z"/>
  <path class="fil1" d="M1.69 1.9c-0.15,0.13 -0.43,0.13 -0.54,-0.03 -0.04,0.02 -0.07,0.06 -0.11,0.09l0.09 -0c0.01,0.01 0.01,0.02 0.02,0.02l-0.02 0.08 0.07 -0.04c0.02,0.01 0.03,0.02 0.05,0.02l-0 0.08 0.07 -0.06c0.02,0 0.03,0.01 0.05,0.01l0.03 0.09 0.04 -0.08c0.01,-0 0.03,-0 0.04,-0l0.05 0.08 0.02 -0.1 0.03 -0.01 0.06 0.07 0 -0.1 0.02 -0.01 0.1 0.04c-0.04,-0.09 -0.03,-0.07 -0.09,-0.14zm0.86 -0.03c0.15,0.13 0.43,0.13 0.54,-0.03 0.04,0.02 0.07,0.06 0.11,0.09l-0.09 -0c-0.01,0.01 -0.01,0.02 -0.02,0.02l0.02 0.08 -0.07 -0.04c-0.01,0.01 -0.03,0.02 -0.05,0.02l0 0.08 -0.07 -0.06c-0.02,0 -0.03,0.01 -0.05,0.01l-0.03 0.09 -0.04 -0.08c-0.01,-0 -0.03,-0 -0.04,-0l-0.05 0.08 -0.02 -0.1 -0.03 -0.01 -0.06 0.07 -0 -0.1 -0.02 -0.01 -0.1 0.04c0.04,-0.09 0.03,-0.07 0.09,-0.14zm0.41 -0.57l0 0.08 -0.29 -0c-0.2,-0 -0.34,0.03 -0.41,0.16 -0.13,0.33 -0.06,0.88 -0.1,1.32 -0.01,0.06 -0.08,0.09 -0.19,0.09l-0.18 -0.01c0.01,-0.08 0.16,-0.04 0.24,-0.07 0.06,-0.02 0.05,-0.06 0.05,-0.1 0,-0.07 0.02,-0.55 0.03,-0.9 0.01,-0.36 0.1,-0.56 0.5,-0.57l0.36 0.01z"/>
 </g>
</svg>
