<?xml version="1.0" encoding="UTF-8"?>
<!DOCTYPE svg PUBLIC "-//W3C//DTD SVG 1.1//EN" "http://www.w3.org/Graphics/SVG/1.1/DTD/svg11.dtd">
<!-- Creator: CorelDRAW 2021 (64-Bit) -->
<svg xmlns="http://www.w3.org/2000/svg" xml:space="preserve" width="4.2334mm" height="3.9688mm" version="1.1" style="shape-rendering:geometricPrecision; text-rendering:geometricPrecision; image-rendering:optimizeQuality; fill-rule:evenodd; clip-rule:evenodd"
viewBox="0 0 0.75 0.71"
 xmlns:xlink="http://www.w3.org/1999/xlink"
 xmlns:xodm="http://www.corel.com/coreldraw/odm/2003">
 <defs>
  <style type="text/css">
   <![CDATA[
    .str0 {stroke:white;stroke-width:0.01;stroke-miterlimit:22.9256}
    .fil0 {fill:#714684;fill-rule:nonzero}
    .fil1 {fill:white;fill-rule:nonzero}
   ]]>
  </style>
 </defs>
 <g id="Слой_x0020_1">
  <metadata id="CorelCorpID_0Corel-Layer"/>
  <path class="fil0" d="M0.09 0l0.57 0c0.05,0 0.09,0.04 0.09,0.09l0 0.52c0,0.05 -0.04,0.09 -0.09,0.09l-0.57 0c-0.05,-0 -0.09,-0.04 -0.09,-0.09l-0 -0.52c0,-0.05 0.04,-0.09 0.09,-0.09z"/>
  <polygon class="fil1 str0" points="0.19,0.37 0.18,0.36 0.18,0.37 0.14,0.41 0.13,0.41 0.14,0.41 0.3,0.57 0.31,0.57 0.31,0.57 0.66,0.23 0.67,0.23 0.66,0.22 0.62,0.19 0.62,0.18 0.62,0.19 0.31,0.48 0.19,0.37 "/>
 </g>
</svg>
