<?xml version="1.0" encoding="UTF-8"?>
<!DOCTYPE svg PUBLIC "-//W3C//DTD SVG 1.1//EN" "http://www.w3.org/Graphics/SVG/1.1/DTD/svg11.dtd">
<!-- Creator: CorelDRAW 2021 (64-Bit) -->
<svg xmlns="http://www.w3.org/2000/svg" xml:space="preserve" width="10.6481mm" height="10.648mm" version="1.1" style="shape-rendering:geometricPrecision; text-rendering:geometricPrecision; image-rendering:optimizeQuality; fill-rule:evenodd; clip-rule:evenodd"
viewBox="0 0 12.25 12.25"
 xmlns:xlink="http://www.w3.org/1999/xlink"
 xmlns:xodm="http://www.corel.com/coreldraw/odm/2003">
 <defs>
  <style type="text/css">
   <![CDATA[
    .str0 {stroke:#D6C5F9;stroke-width:0.23;stroke-miterlimit:22.9256}
    .fil1 {fill:#AD9AD6}
    .fil0 {fill:#D6C5F9}
   ]]>
  </style>
 </defs>
 <g id="Слой_x0020_1">
  <metadata id="CorelCorpID_0Corel-Layer"/>
  <circle class="fil0 str0" cx="6.12" cy="6.12" r="6.01"/>
  <path class="fil1" d="M6.12 1.21c2.71,0 4.91,2.2 4.91,4.91 0,2.71 -2.2,4.91 -4.91,4.91 -2.71,0 -4.91,-2.2 -4.91,-4.91 0,-2.71 2.2,-4.91 4.91,-4.91zm-0 0.54c2.41,0 4.37,1.96 4.37,4.37 0,2.41 -1.96,4.37 -4.37,4.37 -2.41,0 -4.37,-1.96 -4.37,-4.37 0,-2.41 1.96,-4.37 4.37,-4.37z"/>
  <path class="fil1" d="M4.89 5.48c-0.44,0.38 -1.25,0.38 -1.55,-0.1 -0.12,0.07 -0.21,0.16 -0.31,0.26l0.26 -0c0.02,0.02 0.04,0.04 0.06,0.06l-0.06 0.23 0.22 -0.12c0.04,0.02 0.09,0.05 0.14,0.07l-0.01 0.24 0.2 -0.18c0.04,0.01 0.09,0.02 0.14,0.02l0.08 0.25 0.12 -0.24c0.04,-0 0.09,-0 0.13,-0.01l0.13 0.24 0.07 -0.28 0.1 -0.02 0.19 0.2 0.01 -0.29 0.05 -0.04 0.29 0.1c-0.11,-0.26 -0.09,-0.21 -0.25,-0.39zm2.47 -0.08c0.44,0.38 1.25,0.38 1.55,-0.1 0.12,0.07 0.21,0.16 0.31,0.26l-0.26 -0c-0.02,0.02 -0.04,0.04 -0.06,0.06l0.06 0.24 -0.22 -0.12c-0.04,0.02 -0.09,0.05 -0.14,0.07l0.01 0.24 -0.2 -0.18c-0.04,0.01 -0.09,0.02 -0.14,0.02l-0.08 0.25 -0.12 -0.24c-0.04,-0 -0.09,-0 -0.13,-0.01l-0.13 0.24 -0.07 -0.28 -0.1 -0.02 -0.19 0.2 -0.01 -0.29 -0.05 -0.04 -0.29 0.1c0.11,-0.26 0.09,-0.21 0.25,-0.39zm1.18 -1.65l0.01 0.23 -0.85 -0.01c-0.58,-0.01 -0.99,0.09 -1.19,0.46 -0.37,0.96 -0.16,2.53 -0.29,3.81 -0.03,0.17 -0.23,0.27 -0.54,0.27l-0.53 -0.03c0.02,-0.22 0.47,-0.11 0.68,-0.19 0.17,-0.06 0.14,-0.17 0.15,-0.29 0.01,-0.21 0.06,-1.59 0.09,-2.61 0.04,-1.04 0.28,-1.61 1.44,-1.64l1.03 0.02z"/>
 </g>
</svg>
