<?xml version="1.0" encoding="UTF-8"?>
<!DOCTYPE svg PUBLIC "-//W3C//DTD SVG 1.1//EN" "http://www.w3.org/Graphics/SVG/1.1/DTD/svg11.dtd">
<!-- Creator: CorelDRAW 2021 (64-Bit) -->
<svg xmlns="http://www.w3.org/2000/svg" xml:space="preserve" width="38.2743mm" height="12.7547mm" version="1.1" style="shape-rendering:geometricPrecision; text-rendering:geometricPrecision; image-rendering:optimizeQuality; fill-rule:evenodd; clip-rule:evenodd"
viewBox="0 0 82.78 27.59"
 xmlns:xlink="http://www.w3.org/1999/xlink"
 xmlns:xodm="http://www.corel.com/coreldraw/odm/2003">
 <defs>
  <style type="text/css">
   <![CDATA[
    .fil0 {fill:#FFF9F0}
    .fil1 {fill:#FFF9F0;fill-rule:nonzero}
   ]]>
  </style>
 </defs>
 <g id="Слой_x0020_1">
  <metadata id="CorelCorpID_0Corel-Layer"/>
  <g id="_2836316928">
   <g>
    <path class="fil0" d="M73.98 0c4.86,0 8.8,3.94 8.8,8.8 0,4.86 -3.94,8.8 -8.8,8.8 -4.86,0 -8.8,-3.94 -8.8,-8.8 0,-4.86 3.94,-8.8 8.8,-8.8zm-0 0.97c4.32,0 7.83,3.5 7.83,7.83 0,4.32 -3.5,7.83 -7.83,7.83 -4.32,0 -7.83,-3.5 -7.83,-7.83 0,-4.32 3.5,-7.83 7.83,-7.83z"/>
    <path class="fil0" d="M71.94 8.19c-0.79,0.68 -2.23,0.69 -2.77,-0.18 -0.21,0.12 -0.37,0.29 -0.56,0.46l0.47 -0c0.03,0.04 0.07,0.08 0.11,0.11l-0.11 0.42 0.39 -0.22c0.08,0.04 0.16,0.08 0.25,0.12l-0.02 0.42 0.36 -0.32c0.08,0.02 0.16,0.03 0.24,0.04l0.15 0.45 0.22 -0.43c0.08,-0 0.15,-0.01 0.23,-0.02l0.24 0.43 0.12 -0.5 0.18 -0.03 0.34 0.36 0.02 -0.52 0.09 -0.07 0.51 0.18c-0.21,-0.47 -0.17,-0.37 -0.44,-0.7zm4.42 -0.14c0.79,0.68 2.23,0.69 2.77,-0.18 0.21,0.12 0.37,0.29 0.56,0.46l-0.47 -0c-0.03,0.04 -0.07,0.08 -0.11,0.11l0.11 0.42 -0.39 -0.22c-0.08,0.04 -0.16,0.08 -0.25,0.12l0.02 0.42 -0.36 -0.32c-0.08,0.02 -0.16,0.03 -0.24,0.04l-0.15 0.45 -0.22 -0.43c-0.08,-0 -0.15,-0.01 -0.23,-0.02l-0.24 0.43 -0.12 -0.5 -0.18 -0.03 -0.34 0.36 -0.02 -0.52 -0.09 -0.07 -0.51 0.18c0.21,-0.47 0.17,-0.37 0.44,-0.7zm2.11 -2.95l0.01 0.41 -1.52 -0.02c-1.03,-0.02 -1.76,0.16 -2.13,0.82 -0.66,1.71 -0.29,4.53 -0.53,6.82 -0.06,0.3 -0.42,0.49 -0.96,0.48l-0.95 -0.06c0.03,-0.39 0.84,-0.2 1.22,-0.34 0.3,-0.11 0.25,-0.3 0.26,-0.52 0.01,-0.38 0.1,-2.85 0.17,-4.67 0.07,-1.87 0.51,-2.89 2.58,-2.94l1.84 0.04z"/>
   </g>
   <path class="fil0" d="M53.89 13.46c-0.44,1.23 -3.5,3.19 -4.12,1.29 -0.3,-0.91 0.56,-1.81 1.61,-1.5 1.18,0.34 0.87,1.14 2.51,0.21zm0.7 11.77c-1.72,0.12 -1.42,0.23 -2.1,1.49 -1.38,2.56 -4.25,-1.35 -0.88,-1.99 1.49,-0.29 1.92,0.1 2.99,0.5zm-4.18 -1.39c-2.77,-0.62 -4.67,5.27 -6.07,1.58 -1.12,-2.97 4.36,-3.4 6.07,-1.58zm-4.49 -7.92c1.67,-0.79 4.95,2.21 8.73,-1.51 1.26,-1.24 2.72,-3.24 4.67,-3.88 0.71,-0.23 1.89,-0.2 1.89,0.61 0,0.89 -1.26,0.32 -2.16,0.61 -1.47,0.47 -3.75,2.81 -4.89,3.8 -3.13,2.72 -8.33,2.05 -8.24,0.36zm-0.87 5.47c-2.94,0.42 -2.44,1.17 -2.96,3.75 -0.9,4.55 -7.74,0.1 -2.47,-3.05 1.76,-1.05 3.33,-1.08 5.42,-0.7zm-9.15 3.05c0.14,-1.15 1.9,-3.52 2.49,-4.05 4.64,-4.12 10.9,-1.66 15.37,0.87 1.47,0.83 2.89,1.71 4.86,1.99 5.37,0.78 7.05,-4.31 4.01,-6.74 -1.6,-1.28 -4.14,-0.66 -4.46,1.3 2.74,-0.52 2.78,1.77 2.28,2.59 -1.48,2.41 -6.33,1.31 -5.33,-2.93 0.34,-1.42 1.44,-2.31 2.49,-2.94 5.27,-3.14 12.77,3.25 8.11,8.92 -1.5,1.83 -4.95,2.74 -8.05,1.76 -5.98,-1.89 -11.63,-9.39 -19.2,-3.62 -0.62,0.48 -2.31,2.14 -2.58,2.83z"/>
   <g>
    <path class="fil1" d="M1.22 6.21l0 -0.32c0.15,0 0.3,-0.01 0.46,-0.04 0.07,-0.01 0.13,-0.03 0.16,-0.07 0.03,-0.03 0.05,-0.08 0.07,-0.16 0.02,-0.11 0.03,-0.52 0.05,-1.23 0.01,-0.5 0.01,-1.02 0.01,-1.54 0,-1.03 -0,-1.55 -0.01,-1.57 -0.01,-0.02 -0.1,-0.03 -0.28,-0.03 -0.36,0 -0.67,0.01 -0.93,0.03 -0.15,0.01 -0.24,0.03 -0.25,0.04 -0.02,0.01 -0.03,0.04 -0.04,0.07 -0.01,0.03 -0.03,0.26 -0.07,0.69l-0.33 0c0.01,-0.5 -0.01,-0.94 -0.04,-1.3l0.04 -0.03c0.82,0.04 1.61,0.06 2.39,0.06 0.77,0 1.63,-0.02 2.59,-0.06l0.04 0.06c-0.05,0.36 -0.08,0.78 -0.1,1.27l-0.33 0c-0.02,-0.44 -0.05,-0.68 -0.07,-0.72 -0.02,-0.03 -0.06,-0.05 -0.12,-0.06 -0.21,-0.03 -0.62,-0.05 -1.24,-0.05 -0.05,0 -0.08,0.01 -0.09,0.02 -0.01,0.02 -0.01,0.09 -0.01,0.21l-0.02 2.62c0,0.76 0.01,1.22 0.02,1.4 0.01,0.17 0.04,0.28 0.09,0.31 0.03,0.02 0.24,0.05 0.61,0.08l0 0.32c-0.38,-0.02 -0.78,-0.02 -1.21,-0.02 -0.56,0 -1.01,0.01 -1.36,0.02z"/>
    <path id="_1" class="fil1" d="M6.07 6.21l0 -0.2c0.14,-0.06 0.26,-0.14 0.38,-0.22 0.05,-0.41 0.08,-1.26 0.08,-2.56 0,-0.89 -0.01,-1.48 -0.03,-1.76 -0.01,-0.15 -0.03,-0.25 -0.08,-0.29 -0.05,-0.04 -0.24,-0.07 -0.58,-0.1l0 -0.32c0.61,0.02 1.1,0.02 1.45,0.02l2.14 -0.02c0.23,0 0.43,0.01 0.61,0.03l0.03 0.04c-0.05,0.28 -0.09,0.66 -0.12,1.12l-0.31 0c-0.01,-0.38 -0.03,-0.58 -0.05,-0.61 -0.02,-0.03 -0.08,-0.05 -0.18,-0.07 -0.22,-0.05 -0.55,-0.07 -0.99,-0.07 -0.22,0 -0.47,0.01 -0.76,0.02 -0.03,0.81 -0.05,1.45 -0.06,1.93 0.28,0.02 0.54,0.02 0.78,0.02 0.36,0 0.58,-0.01 0.65,-0.03 0.04,-0.02 0.07,-0.05 0.09,-0.11 0.02,-0.05 0.03,-0.21 0.05,-0.49l0.33 0c-0.01,0.44 -0.02,0.73 -0.02,0.86l0.02 0.88 -0.33 0c-0.02,-0.34 -0.04,-0.54 -0.07,-0.59 -0.02,-0.03 -0.05,-0.05 -0.1,-0.07 -0.13,-0.03 -0.42,-0.04 -0.88,-0.04 -0.14,0 -0.31,0.01 -0.5,0.02 -0.01,0.14 -0.01,0.28 -0.01,0.42 0,0.74 0.01,1.31 0.04,1.71l0.77 0.01c0.44,0 0.84,-0.02 1.2,-0.07 0.06,-0.24 0.12,-0.51 0.18,-0.81l0.33 0c-0.06,0.46 -0.09,0.91 -0.1,1.33 -0.24,0.02 -0.46,0.02 -0.68,0.02 -0.14,0 -0.42,-0 -0.84,-0.01 -0.39,-0.01 -0.75,-0.01 -1.08,-0.01 -0.43,0 -0.89,0.01 -1.37,0.02z"/>
    <path id="_2" class="fil1" d="M11.01 6.21l0 -0.32c0.3,-0.03 0.47,-0.05 0.52,-0.07 0.03,-0.02 0.05,-0.04 0.06,-0.07 0.03,-0.06 0.05,-0.27 0.05,-0.63 0.01,-0.56 0.02,-0.99 0.02,-1.31 0,-0.43 -0.01,-0.98 -0.02,-1.65 -0.01,-0.5 -0.03,-0.8 -0.07,-0.91 -0.01,-0.03 -0.03,-0.06 -0.06,-0.08 -0.04,-0.03 -0.21,-0.06 -0.5,-0.09l0 -0.32c0.54,0.02 0.88,0.02 1.04,0.02l1.95 -0.02c0.42,0 0.73,0.04 0.92,0.12 0.19,0.08 0.35,0.21 0.46,0.39 0.11,0.18 0.17,0.39 0.17,0.63 0,0.31 -0.09,0.58 -0.27,0.82 -0.18,0.24 -0.49,0.44 -0.94,0.62l0.83 1.25 0.64 0.96c0.12,0.16 0.22,0.25 0.27,0.28 0.06,0.03 0.16,0.05 0.29,0.05l0 0.29 -0.23 0c-0.66,0 -1.08,0.01 -1.27,0.02 -0.23,-0.36 -0.56,-0.88 -1.01,-1.57l-0.8 -1.22c0.02,-0.04 0.04,-0.09 0.06,-0.14 0.1,0.01 0.18,0.02 0.23,0.02 0.24,0 0.48,-0.1 0.71,-0.29 0.23,-0.2 0.35,-0.47 0.35,-0.83 0,-0.31 -0.09,-0.56 -0.28,-0.73 -0.19,-0.17 -0.46,-0.26 -0.84,-0.26 -0.12,0 -0.28,0.01 -0.48,0.02l-0.02 1.15 -0.03 1.46c0,0.33 0.01,0.75 0.04,1.27 0.02,0.39 0.04,0.61 0.06,0.65 0.02,0.03 0.04,0.06 0.08,0.08 0.05,0.03 0.23,0.05 0.52,0.07l0 0.32c-0.46,-0.02 -0.88,-0.02 -1.24,-0.02 -0.38,0 -0.79,0.01 -1.23,0.02z"/>
    <path id="_3" class="fil1" d="M17.1 6.21l0 -0.32c0.3,-0.03 0.47,-0.05 0.52,-0.07 0.03,-0.02 0.05,-0.04 0.06,-0.07 0.03,-0.06 0.05,-0.27 0.05,-0.63 0.01,-0.56 0.02,-0.99 0.02,-1.31 0,-0.43 -0.01,-0.98 -0.02,-1.65 -0.01,-0.5 -0.03,-0.8 -0.07,-0.91 -0.01,-0.03 -0.03,-0.06 -0.06,-0.08 -0.04,-0.03 -0.21,-0.06 -0.5,-0.09l0 -0.32c0.54,0.02 0.88,0.02 1.04,0.02l1.95 -0.02c0.42,0 0.73,0.04 0.92,0.12 0.19,0.08 0.35,0.21 0.46,0.39 0.11,0.18 0.17,0.39 0.17,0.63 0,0.31 -0.09,0.58 -0.27,0.82 -0.18,0.24 -0.49,0.44 -0.94,0.62l0.83 1.25 0.64 0.96c0.12,0.16 0.22,0.25 0.27,0.28 0.06,0.03 0.16,0.05 0.29,0.05l0 0.29 -0.23 0c-0.66,0 -1.08,0.01 -1.27,0.02 -0.23,-0.36 -0.56,-0.88 -1.01,-1.57l-0.8 -1.22c0.02,-0.04 0.04,-0.09 0.06,-0.14 0.1,0.01 0.18,0.02 0.23,0.02 0.24,0 0.48,-0.1 0.71,-0.29 0.23,-0.2 0.35,-0.47 0.35,-0.83 0,-0.31 -0.09,-0.56 -0.28,-0.73 -0.19,-0.17 -0.46,-0.26 -0.84,-0.26 -0.12,0 -0.28,0.01 -0.48,0.02l-0.02 1.15 -0.03 1.46c0,0.33 0.01,0.75 0.04,1.27 0.02,0.39 0.04,0.61 0.06,0.65 0.02,0.03 0.04,0.06 0.08,0.08 0.05,0.03 0.23,0.05 0.52,0.07l0 0.32c-0.46,-0.02 -0.88,-0.02 -1.24,-0.02 -0.38,0 -0.79,0.01 -1.23,0.02z"/>
    <path id="_4" class="fil1" d="M23.19 6.21l0 -0.32c0.35,-0.02 0.55,-0.05 0.59,-0.09 0.05,-0.04 0.07,-0.14 0.08,-0.31 0.02,-0.34 0.03,-0.98 0.03,-1.92 0,-0.36 -0.01,-0.88 -0.02,-1.56 -0,-0.46 -0.01,-0.72 -0.03,-0.77 -0.01,-0.05 -0.04,-0.08 -0.08,-0.1 -0.06,-0.03 -0.25,-0.05 -0.58,-0.07l0 -0.32c0.53,0.02 0.93,0.02 1.21,0.02 0.48,0 0.92,-0.01 1.31,-0.02l0 0.32c-0.35,0.02 -0.55,0.05 -0.59,0.08 -0.05,0.04 -0.07,0.12 -0.09,0.24 -0.02,0.25 -0.03,0.76 -0.03,1.52 0,1.01 0,1.72 0.01,2.12 0.01,0.4 0.03,0.64 0.07,0.71 0.01,0.03 0.05,0.06 0.1,0.08 0.05,0.02 0.23,0.04 0.53,0.06l0 0.32 -0.46 -0.01c-0.29,-0.01 -0.54,-0.01 -0.77,-0.01l-1.3 0.02z"/>
    <path id="_5" class="fil1" d="M27.69 6.21l0 -0.32c0.15,0 0.3,-0.01 0.46,-0.04 0.07,-0.01 0.13,-0.03 0.16,-0.07 0.03,-0.03 0.05,-0.08 0.07,-0.16 0.02,-0.11 0.03,-0.52 0.05,-1.23 0.01,-0.5 0.01,-1.02 0.01,-1.54 0,-1.03 -0,-1.55 -0.01,-1.57 -0.01,-0.02 -0.1,-0.03 -0.28,-0.03 -0.36,0 -0.67,0.01 -0.93,0.03 -0.15,0.01 -0.24,0.03 -0.25,0.04 -0.02,0.01 -0.03,0.04 -0.04,0.07 -0.01,0.03 -0.03,0.26 -0.07,0.69l-0.33 0c0.01,-0.5 -0.01,-0.94 -0.04,-1.3l0.04 -0.03c0.82,0.04 1.61,0.06 2.39,0.06 0.77,0 1.63,-0.02 2.59,-0.06l0.04 0.06c-0.05,0.36 -0.08,0.78 -0.1,1.27l-0.33 0c-0.02,-0.44 -0.05,-0.68 -0.07,-0.72 -0.02,-0.03 -0.06,-0.05 -0.12,-0.06 -0.21,-0.03 -0.62,-0.05 -1.24,-0.05 -0.05,0 -0.08,0.01 -0.09,0.02 -0.01,0.02 -0.01,0.09 -0.01,0.21l-0.02 2.62c0,0.76 0.01,1.22 0.02,1.4 0.01,0.17 0.04,0.28 0.09,0.31 0.03,0.02 0.24,0.05 0.61,0.08l0 0.32c-0.38,-0.02 -0.78,-0.02 -1.21,-0.02 -0.56,0 -1.01,0.01 -1.36,0.02z"/>
    <path id="_6" class="fil1" d="M35.27 6.29c-0.96,0 -1.69,-0.25 -2.2,-0.74 -0.51,-0.49 -0.76,-1.17 -0.76,-2.03 0,-0.6 0.12,-1.11 0.37,-1.53 0.25,-0.42 0.59,-0.74 1.03,-0.97 0.44,-0.23 1,-0.34 1.69,-0.34 0.66,0 1.2,0.11 1.62,0.33 0.42,0.22 0.74,0.52 0.97,0.9 0.23,0.38 0.34,0.86 0.34,1.42 0,0.61 -0.12,1.13 -0.37,1.57 -0.25,0.44 -0.6,0.78 -1.05,1.03 -0.45,0.24 -1,0.36 -1.63,0.36zm0.15 -0.42c0.52,0 0.94,-0.19 1.25,-0.58 0.31,-0.38 0.47,-0.97 0.47,-1.76 0,-0.82 -0.18,-1.46 -0.54,-1.9 -0.29,-0.35 -0.73,-0.53 -1.34,-0.53 -0.56,0 -1,0.19 -1.31,0.56 -0.31,0.37 -0.46,0.94 -0.46,1.71 0,0.55 0.08,1.02 0.25,1.41 0.17,0.38 0.38,0.66 0.65,0.83 0.26,0.17 0.6,0.25 1.02,0.25z"/>
    <path id="_7" class="fil1" d="M39.25 6.21l0 -0.32c0.3,-0.03 0.47,-0.05 0.52,-0.07 0.03,-0.02 0.05,-0.04 0.06,-0.07 0.03,-0.06 0.05,-0.27 0.05,-0.63 0.01,-0.56 0.02,-0.99 0.02,-1.31 0,-0.43 -0.01,-0.98 -0.02,-1.65 -0.01,-0.5 -0.03,-0.8 -0.07,-0.91 -0.01,-0.03 -0.03,-0.06 -0.06,-0.08 -0.04,-0.03 -0.21,-0.06 -0.5,-0.09l0 -0.32c0.54,0.02 0.88,0.02 1.04,0.02l1.95 -0.02c0.42,0 0.73,0.04 0.92,0.12 0.19,0.08 0.35,0.21 0.46,0.39 0.11,0.18 0.17,0.39 0.17,0.63 0,0.31 -0.09,0.58 -0.27,0.82 -0.18,0.24 -0.49,0.44 -0.94,0.62l0.83 1.25 0.64 0.96c0.12,0.16 0.22,0.25 0.27,0.28 0.06,0.03 0.16,0.05 0.29,0.05l0 0.29 -0.23 0c-0.66,0 -1.08,0.01 -1.27,0.02 -0.23,-0.36 -0.56,-0.88 -1.01,-1.57l-0.8 -1.22c0.02,-0.04 0.04,-0.09 0.06,-0.14 0.1,0.01 0.18,0.02 0.23,0.02 0.24,0 0.48,-0.1 0.71,-0.29 0.23,-0.2 0.35,-0.47 0.35,-0.83 0,-0.31 -0.09,-0.56 -0.28,-0.73 -0.19,-0.17 -0.46,-0.26 -0.84,-0.26 -0.12,0 -0.28,0.01 -0.48,0.02l-0.02 1.15 -0.03 1.46c0,0.33 0.01,0.75 0.04,1.27 0.02,0.39 0.04,0.61 0.06,0.65 0.02,0.03 0.04,0.06 0.08,0.08 0.05,0.03 0.23,0.05 0.52,0.07l0 0.32c-0.46,-0.02 -0.88,-0.02 -1.24,-0.02 -0.38,0 -0.79,0.01 -1.23,0.02z"/>
    <path id="_8" class="fil1" d="M46.62 6.21l0 -0.32c0.26,0 0.45,-0.02 0.55,-0.07 0.06,-0.03 0.1,-0.09 0.12,-0.18 0.01,-0.03 0.02,-0.28 0.03,-0.76l0 -0.28c0,-0.35 -0.02,-0.57 -0.05,-0.66 -0.06,-0.14 -0.26,-0.49 -0.6,-1.03 -0.34,-0.54 -0.6,-0.93 -0.79,-1.16 -0.18,-0.23 -0.33,-0.38 -0.46,-0.46 -0.04,-0.03 -0.1,-0.04 -0.17,-0.04l-0.19 0.01 0 -0.31c0.43,-0.07 0.86,-0.16 1.28,-0.27 0.14,0.07 0.25,0.14 0.34,0.23 0.13,0.13 0.31,0.39 0.55,0.78 0.23,0.39 0.53,0.94 0.9,1.67l0.32 -0.55c0.29,-0.49 0.67,-1.18 1.15,-2.05l0.63 0 0 0.2c-0.14,0.16 -0.39,0.54 -0.77,1.12 -0.59,0.92 -0.91,1.46 -0.98,1.62 -0.04,0.1 -0.06,0.3 -0.06,0.6 0,0.61 0.01,1.04 0.04,1.29 0.01,0.13 0.05,0.22 0.1,0.25 0.05,0.03 0.25,0.06 0.6,0.07l0 0.32c-0.38,-0.02 -0.76,-0.02 -1.15,-0.02 -0.43,0 -0.89,0.01 -1.4,0.02z"/>
    <path id="_9" class="fil1" d="M55.97 6.29c-0.96,0 -1.69,-0.25 -2.2,-0.74 -0.51,-0.49 -0.76,-1.17 -0.76,-2.03 0,-0.6 0.12,-1.11 0.37,-1.53 0.25,-0.42 0.59,-0.74 1.03,-0.97 0.44,-0.23 1,-0.34 1.69,-0.34 0.66,0 1.2,0.11 1.62,0.33 0.42,0.22 0.74,0.52 0.97,0.9 0.23,0.38 0.34,0.86 0.34,1.42 0,0.61 -0.12,1.13 -0.37,1.57 -0.25,0.44 -0.6,0.78 -1.05,1.03 -0.45,0.24 -1,0.36 -1.63,0.36zm0.15 -0.42c0.52,0 0.94,-0.19 1.25,-0.58 0.31,-0.38 0.47,-0.97 0.47,-1.76 0,-0.82 -0.18,-1.46 -0.54,-1.9 -0.29,-0.35 -0.73,-0.53 -1.34,-0.53 -0.56,0 -1,0.19 -1.31,0.56 -0.31,0.37 -0.46,0.94 -0.46,1.71 0,0.55 0.08,1.02 0.25,1.41 0.17,0.38 0.38,0.66 0.65,0.83 0.26,0.17 0.6,0.25 1.02,0.25z"/>
    <path id="_10" class="fil1" d="M59.97 6.21l0 -0.32c0.33,-0 0.52,-0.03 0.57,-0.07 0.04,-0.03 0.07,-0.12 0.07,-0.28 0.03,-0.51 0.05,-1.09 0.05,-1.76 0,-0.49 -0.01,-1.02 -0.02,-1.58 -0.01,-0.56 -0.03,-0.89 -0.06,-0.97 -0.02,-0.04 -0.04,-0.07 -0.07,-0.08 -0.04,-0.03 -0.22,-0.05 -0.54,-0.07l0 -0.32c0.45,0.02 0.84,0.02 1.17,0.02 0.48,0 0.97,-0 1.5,-0.01 0.34,-0.01 0.63,-0.01 0.87,-0.01 0.17,0 0.33,0.01 0.48,0.02l0.04 0.08c-0.06,0.33 -0.09,0.71 -0.1,1.15l-0.33 0 -0.03 -0.42c-0.01,-0.13 -0.03,-0.21 -0.05,-0.24 -0.03,-0.03 -0.12,-0.06 -0.29,-0.09 -0.16,-0.03 -0.4,-0.05 -0.7,-0.05 -0.22,0 -0.46,0.01 -0.71,0.02 -0.03,0.44 -0.04,0.75 -0.04,0.93l0.01 0.84 -0 0.18c0.16,0.01 0.34,0.01 0.56,0.01 0.4,0 0.63,-0.01 0.71,-0.03 0.04,-0.01 0.07,-0.03 0.09,-0.06 0.03,-0.06 0.05,-0.22 0.07,-0.49l0.33 0c-0.01,0.23 -0.01,0.46 -0.01,0.68 0,0.21 0,0.55 0.01,1.02l-0.33 0c-0.02,-0.33 -0.05,-0.53 -0.07,-0.59 -0.02,-0.03 -0.05,-0.05 -0.1,-0.07 -0.12,-0.03 -0.38,-0.05 -0.76,-0.05l-0.51 0.01 0.02 1.5c0.01,0.36 0.03,0.57 0.05,0.63 0.02,0.04 0.05,0.06 0.08,0.08 0.05,0.03 0.27,0.05 0.65,0.07l0 0.32c-0.41,-0.02 -0.8,-0.02 -1.17,-0.02 -0.32,0 -0.8,0.01 -1.44,0.02z"/>
    <path class="fil1" d="M0.13 23.77l0.33 0c0,0.38 0.01,0.61 0.04,0.68 0.02,0.07 0.1,0.15 0.22,0.26 0.13,0.11 0.29,0.2 0.5,0.26 0.2,0.07 0.41,0.1 0.62,0.1 0.37,0 0.66,-0.1 0.88,-0.29 0.22,-0.19 0.33,-0.44 0.33,-0.73 0,-0.27 -0.07,-0.47 -0.22,-0.61 -0.15,-0.14 -0.43,-0.24 -0.84,-0.3 -0.61,-0.09 -1.02,-0.18 -1.24,-0.29 -0.21,-0.1 -0.38,-0.26 -0.51,-0.47 -0.12,-0.21 -0.18,-0.46 -0.18,-0.75 0,-0.49 0.17,-0.9 0.51,-1.24 0.34,-0.34 0.89,-0.51 1.65,-0.51 0.29,0 0.56,0.02 0.79,0.07 0.23,0.04 0.46,0.12 0.69,0.22l0.04 0.09c-0.04,0.16 -0.07,0.31 -0.09,0.44 -0.02,0.13 -0.03,0.36 -0.05,0.69l-0.33 0c-0.01,-0.4 -0.03,-0.62 -0.06,-0.67 -0.05,-0.08 -0.17,-0.18 -0.37,-0.27 -0.2,-0.09 -0.43,-0.14 -0.69,-0.14 -0.35,0 -0.63,0.09 -0.82,0.26 -0.2,0.17 -0.29,0.39 -0.29,0.67 0,0.17 0.04,0.31 0.12,0.43 0.08,0.12 0.19,0.21 0.34,0.27 0.14,0.06 0.45,0.12 0.93,0.2 0.43,0.06 0.72,0.13 0.88,0.19 0.25,0.1 0.44,0.25 0.57,0.46 0.13,0.21 0.2,0.47 0.2,0.79 0,0.55 -0.21,1.01 -0.63,1.37 -0.42,0.36 -0.99,0.55 -1.72,0.55 -0.32,0 -0.62,-0.03 -0.88,-0.09 -0.26,-0.06 -0.54,-0.16 -0.82,-0.31 0.05,-0.18 0.08,-0.35 0.09,-0.49 0.02,-0.2 0.03,-0.48 0.03,-0.83z"/>
    <path id="_1_0" class="fil1" d="M6.12 25.42l0 -0.32c0.15,0 0.3,-0.01 0.46,-0.04 0.07,-0.01 0.13,-0.03 0.16,-0.07 0.03,-0.03 0.05,-0.08 0.07,-0.16 0.02,-0.11 0.03,-0.52 0.05,-1.23 0.01,-0.5 0.01,-1.02 0.01,-1.54 0,-1.03 -0,-1.55 -0.01,-1.57 -0.01,-0.02 -0.1,-0.03 -0.28,-0.03 -0.36,0 -0.67,0.01 -0.93,0.03 -0.15,0.01 -0.24,0.03 -0.25,0.04 -0.02,0.01 -0.03,0.04 -0.04,0.07 -0.01,0.03 -0.03,0.26 -0.07,0.69l-0.33 0c0.01,-0.5 -0.01,-0.94 -0.04,-1.3l0.04 -0.03c0.82,0.04 1.61,0.06 2.39,0.06 0.77,0 1.63,-0.02 2.59,-0.06l0.04 0.06c-0.05,0.36 -0.08,0.78 -0.1,1.27l-0.33 0c-0.02,-0.44 -0.05,-0.68 -0.07,-0.72 -0.02,-0.03 -0.06,-0.05 -0.12,-0.06 -0.21,-0.03 -0.62,-0.05 -1.24,-0.05 -0.05,0 -0.08,0.01 -0.09,0.02 -0.01,0.02 -0.01,0.09 -0.01,0.21l-0.02 2.62c0,0.76 0.01,1.22 0.02,1.4 0.01,0.17 0.04,0.28 0.09,0.31 0.03,0.02 0.24,0.05 0.61,0.08l0 0.32c-0.38,-0.02 -0.78,-0.02 -1.21,-0.02 -0.56,0 -1.01,0.01 -1.36,0.02z"/>
    <path id="_2_1" class="fil1" d="M10.65 20.28l0 -0.32c0.53,0.02 0.99,0.02 1.39,0.02 0.25,0 0.61,-0.01 1.08,-0.02l0 0.32c-0.24,0 -0.41,0.02 -0.51,0.06 -0.03,0.01 -0.06,0.03 -0.08,0.07 -0.03,0.04 -0.05,0.1 -0.06,0.18 -0.01,0.14 -0.03,0.56 -0.04,1.25 -0.01,0.48 -0.01,0.97 -0.01,1.47 0,0.41 0.05,0.71 0.14,0.9 0.09,0.19 0.23,0.33 0.41,0.43 0.26,0.13 0.54,0.2 0.84,0.2 0.42,0 0.73,-0.07 0.95,-0.21 0.22,-0.14 0.37,-0.33 0.44,-0.57 0.08,-0.24 0.11,-0.77 0.11,-1.59l-0 -1.44c-0,-0.33 -0.02,-0.52 -0.05,-0.59 -0.02,-0.04 -0.04,-0.06 -0.08,-0.08 -0.06,-0.04 -0.25,-0.07 -0.57,-0.09l0 -0.32c0.34,0.02 0.65,0.02 0.93,0.02 0.25,0 0.55,-0.01 0.9,-0.02l0 0.32c-0.26,0 -0.42,0.03 -0.48,0.09 -0.06,0.06 -0.1,0.2 -0.12,0.44 -0.03,0.58 -0.04,1.24 -0.05,1.98 0,0.47 -0.01,0.78 -0.02,0.92 -0.03,0.36 -0.12,0.66 -0.26,0.92 -0.15,0.25 -0.39,0.46 -0.72,0.63 -0.34,0.16 -0.76,0.25 -1.26,0.25 -0.52,0 -0.95,-0.08 -1.3,-0.23 -0.35,-0.16 -0.59,-0.35 -0.74,-0.59 -0.14,-0.24 -0.22,-0.59 -0.22,-1.05l0.02 -1.75c0,-0.14 -0.01,-0.5 -0.02,-1.07 -0.01,-0.18 -0.03,-0.3 -0.06,-0.37 -0.02,-0.04 -0.05,-0.07 -0.1,-0.08 -0.04,-0.02 -0.21,-0.04 -0.5,-0.07z"/>
    <path id="_3_2" class="fil1" d="M17.51 25.42l0 -0.2c0.18,-0.1 0.31,-0.18 0.38,-0.23 0.04,-0.46 0.05,-1.31 0.05,-2.56 0,-0.54 -0.01,-0.99 -0.02,-1.36 -0.01,-0.36 -0.03,-0.57 -0.05,-0.62 -0.01,-0.03 -0.03,-0.04 -0.05,-0.06 -0.04,-0.02 -0.23,-0.05 -0.57,-0.09l0 -0.33c0.39,0.02 0.84,0.02 1.35,0.02l1.91 -0.02c0.7,0 1.23,0.09 1.59,0.26 0.36,0.18 0.65,0.45 0.86,0.81 0.21,0.36 0.32,0.8 0.32,1.32 0,0.67 -0.17,1.24 -0.5,1.72 -0.33,0.48 -0.74,0.83 -1.22,1.03 -0.48,0.2 -0.99,0.31 -1.53,0.31l-1.48 -0.02c-0.24,0 -0.59,0.01 -1.07,0.02zm1.58 -0.48c0.22,0.04 0.44,0.06 0.67,0.06 0.58,0 1.02,-0.08 1.33,-0.25 0.3,-0.17 0.55,-0.44 0.74,-0.81 0.19,-0.38 0.28,-0.84 0.28,-1.39 0,-0.72 -0.19,-1.27 -0.56,-1.65 -0.33,-0.34 -0.87,-0.5 -1.62,-0.5 -0.16,0 -0.44,0.01 -0.84,0.04l-0.03 2.42c0,1.02 0.01,1.71 0.03,2.09z"/>
    <path id="_4_3" class="fil1" d="M24.22 25.42l0 -0.32c0.35,-0.02 0.55,-0.05 0.59,-0.09 0.05,-0.04 0.07,-0.14 0.08,-0.31 0.02,-0.34 0.03,-0.98 0.03,-1.92 0,-0.36 -0.01,-0.88 -0.02,-1.56 -0,-0.46 -0.01,-0.72 -0.03,-0.77 -0.01,-0.05 -0.04,-0.08 -0.08,-0.1 -0.06,-0.03 -0.25,-0.05 -0.58,-0.07l0 -0.32c0.53,0.02 0.93,0.02 1.21,0.02 0.48,0 0.92,-0.01 1.31,-0.02l0 0.32c-0.35,0.02 -0.55,0.05 -0.59,0.08 -0.05,0.04 -0.07,0.12 -0.09,0.24 -0.02,0.25 -0.03,0.76 -0.03,1.52 0,1.01 0,1.72 0.01,2.12 0.01,0.4 0.03,0.64 0.07,0.71 0.01,0.03 0.05,0.06 0.1,0.08 0.05,0.02 0.23,0.04 0.53,0.06l0 0.32 -0.46 -0.01c-0.29,-0.01 -0.54,-0.01 -0.77,-0.01l-1.3 0.02z"/>
    <path id="_5_4" class="fil1" d="M30.64 25.5c-0.96,0 -1.69,-0.25 -2.2,-0.74 -0.51,-0.49 -0.76,-1.17 -0.76,-2.03 0,-0.6 0.12,-1.11 0.37,-1.53 0.25,-0.42 0.59,-0.74 1.03,-0.97 0.44,-0.23 1,-0.34 1.69,-0.34 0.66,0 1.2,0.11 1.62,0.33 0.42,0.22 0.74,0.52 0.97,0.9 0.23,0.38 0.34,0.86 0.34,1.42 0,0.61 -0.12,1.13 -0.37,1.57 -0.25,0.44 -0.6,0.78 -1.05,1.03 -0.45,0.24 -1,0.36 -1.63,0.36zm0.15 -0.42c0.52,0 0.94,-0.19 1.25,-0.58 0.31,-0.38 0.47,-0.97 0.47,-1.76 0,-0.82 -0.18,-1.46 -0.54,-1.9 -0.29,-0.35 -0.73,-0.53 -1.34,-0.53 -0.56,0 -1,0.19 -1.31,0.56 -0.31,0.37 -0.46,0.94 -0.46,1.71 0,0.55 0.08,1.02 0.25,1.41 0.17,0.38 0.38,0.66 0.65,0.83 0.26,0.17 0.6,0.25 1.02,0.25z"/>
    <path class="fil1" d="M-0 15.81l0 -0.32 0.23 -0.02c0.19,-0.01 0.31,-0.04 0.35,-0.1 0.05,-0.05 0.08,-0.24 0.08,-0.56 0.02,-0.64 0.02,-1.33 0.02,-2.08 0,-0.4 -0,-0.85 -0,-1.35 -0,-0.31 -0.02,-0.49 -0.05,-0.56 -0.02,-0.03 -0.04,-0.06 -0.09,-0.08 -0.04,-0.02 -0.23,-0.04 -0.55,-0.07l0 -0.32c0.31,0.01 0.62,0.01 0.92,0.01 0.35,0 0.69,-0 1.01,-0.01 0.14,0.33 0.28,0.66 0.43,0.98 0.11,0.23 0.58,1.21 1.41,2.93 0.89,-1.77 1.51,-3.08 1.86,-3.91 0.31,0.02 0.61,0.02 0.89,0.02 0.33,0 0.65,-0.01 0.95,-0.02l0 0.32c-0.34,0.02 -0.54,0.05 -0.58,0.09 -0.04,0.04 -0.07,0.16 -0.09,0.36 -0.02,0.33 -0.02,0.95 -0.02,1.86 0,0.46 0,0.95 0.01,1.46 0.01,0.51 0.03,0.8 0.05,0.87 0.02,0.04 0.04,0.07 0.08,0.09 0.03,0.02 0.22,0.05 0.55,0.08l0 0.32c-0.42,-0.02 -0.8,-0.02 -1.12,-0.02 -0.33,0 -0.78,0.01 -1.35,0.02l0 -0.32 0.23 -0.01c0.18,-0.01 0.29,-0.03 0.34,-0.08 0.04,-0.04 0.07,-0.16 0.09,-0.34 0.01,-0.18 0.02,-0.62 0.02,-1.3l0 -2.35c-0.4,0.8 -0.91,1.86 -1.53,3.16 -0.25,0.54 -0.45,0.97 -0.6,1.31l-0.25 0c-0.2,-0.45 -0.46,-1.01 -0.78,-1.7l-1.34 -2.77 0 0.53c0,1.46 0.01,2.47 0.02,3.02 0.01,0.22 0.04,0.36 0.09,0.42 0.05,0.05 0.25,0.09 0.58,0.1l0 0.32c-0.26,-0.02 -0.53,-0.02 -0.79,-0.02 -0.39,0 -0.74,0.01 -1.05,0.02zm8.3 -0.35c0.24,-0.01 0.39,-0.04 0.45,-0.07 0.04,-0.03 0.1,-0.12 0.18,-0.29 0.16,-0.34 0.36,-0.81 0.61,-1.4l1.37 -3.37 0.57 0 1.76 4.18c0.23,0.53 0.37,0.82 0.42,0.87 0.05,0.05 0.22,0.08 0.49,0.1l0 0.35c-0.42,-0.02 -0.82,-0.02 -1.2,-0.02 -0.45,0 -0.88,0.01 -1.28,0.02l0 -0.35c0.31,-0.01 0.49,-0.03 0.54,-0.05 0.05,-0.02 0.07,-0.06 0.07,-0.12 0,-0.05 -0.05,-0.21 -0.16,-0.5l-0.26 -0.65c-0.32,-0.01 -0.68,-0.01 -1.07,-0.01 -0.34,0 -0.66,0 -0.94,0.01l-0.17 0.44c-0.05,0.12 -0.1,0.3 -0.17,0.53 -0.02,0.05 -0.02,0.1 -0.02,0.14 0,0.06 0.03,0.1 0.08,0.12 0.05,0.02 0.23,0.05 0.55,0.07l0 0.35c-0.25,-0.02 -0.57,-0.02 -0.95,-0.02 -0.36,0 -0.65,0.01 -0.86,0.02l0 -0.35zm2.55 -3.77l-0.82 2c0.24,0.01 0.5,0.02 0.79,0.02 0.3,0 0.59,-0.01 0.86,-0.02l-0.83 -2zm4.29 2.48l0.33 0c0,0.38 0.01,0.61 0.04,0.68 0.02,0.07 0.1,0.15 0.22,0.26 0.13,0.11 0.29,0.2 0.5,0.26 0.2,0.07 0.41,0.1 0.62,0.1 0.37,0 0.66,-0.1 0.88,-0.29 0.22,-0.19 0.33,-0.44 0.33,-0.73 0,-0.27 -0.07,-0.47 -0.22,-0.61 -0.15,-0.14 -0.43,-0.24 -0.84,-0.3 -0.61,-0.09 -1.03,-0.18 -1.24,-0.29 -0.21,-0.1 -0.38,-0.26 -0.51,-0.47 -0.12,-0.21 -0.18,-0.46 -0.18,-0.75 0,-0.49 0.17,-0.9 0.51,-1.24 0.34,-0.34 0.89,-0.51 1.65,-0.51 0.29,0 0.56,0.02 0.79,0.07 0.23,0.04 0.46,0.12 0.69,0.22l0.04 0.09c-0.04,0.16 -0.07,0.31 -0.09,0.44 -0.02,0.13 -0.03,0.36 -0.05,0.69l-0.33 0c-0.01,-0.4 -0.03,-0.62 -0.06,-0.67 -0.05,-0.08 -0.17,-0.18 -0.37,-0.27 -0.2,-0.09 -0.43,-0.14 -0.69,-0.14 -0.35,0 -0.63,0.09 -0.82,0.26 -0.2,0.17 -0.29,0.39 -0.29,0.67 0,0.17 0.04,0.31 0.12,0.43 0.08,0.12 0.19,0.21 0.34,0.27 0.14,0.06 0.45,0.12 0.93,0.2 0.43,0.06 0.72,0.13 0.88,0.19 0.25,0.1 0.44,0.25 0.57,0.46 0.13,0.21 0.2,0.47 0.2,0.79 0,0.55 -0.21,1.01 -0.63,1.37 -0.42,0.36 -0.99,0.55 -1.72,0.55 -0.32,0 -0.62,-0.03 -0.88,-0.09 -0.26,-0.06 -0.54,-0.16 -0.82,-0.31 0.05,-0.18 0.08,-0.35 0.09,-0.49 0.02,-0.2 0.03,-0.48 0.03,-0.83zm5.2 0l0.33 0c0,0.38 0.01,0.61 0.04,0.68 0.02,0.07 0.1,0.15 0.22,0.26 0.13,0.11 0.29,0.2 0.5,0.26 0.2,0.07 0.41,0.1 0.62,0.1 0.37,0 0.66,-0.1 0.88,-0.29 0.22,-0.19 0.33,-0.44 0.33,-0.73 0,-0.27 -0.07,-0.47 -0.22,-0.61 -0.15,-0.14 -0.43,-0.24 -0.84,-0.3 -0.61,-0.09 -1.03,-0.18 -1.24,-0.29 -0.21,-0.1 -0.38,-0.26 -0.51,-0.47 -0.12,-0.21 -0.18,-0.46 -0.18,-0.75 0,-0.49 0.17,-0.9 0.51,-1.24 0.34,-0.34 0.89,-0.51 1.65,-0.51 0.29,0 0.56,0.02 0.79,0.07 0.23,0.04 0.46,0.12 0.69,0.22l0.04 0.09c-0.04,0.16 -0.07,0.31 -0.09,0.44 -0.02,0.13 -0.03,0.36 -0.05,0.69l-0.33 0c-0.01,-0.4 -0.03,-0.62 -0.06,-0.67 -0.05,-0.08 -0.17,-0.18 -0.37,-0.27 -0.2,-0.09 -0.43,-0.14 -0.69,-0.14 -0.35,0 -0.63,0.09 -0.82,0.26 -0.2,0.17 -0.29,0.39 -0.29,0.67 0,0.17 0.04,0.31 0.12,0.43 0.08,0.12 0.19,0.21 0.34,0.27 0.14,0.06 0.45,0.12 0.93,0.2 0.43,0.06 0.72,0.13 0.88,0.19 0.25,0.1 0.44,0.25 0.57,0.46 0.13,0.21 0.2,0.47 0.2,0.79 0,0.55 -0.21,1.01 -0.63,1.37 -0.42,0.36 -0.99,0.55 -1.72,0.55 -0.32,0 -0.62,-0.03 -0.88,-0.09 -0.26,-0.06 -0.54,-0.16 -0.82,-0.31 0.05,-0.18 0.08,-0.35 0.09,-0.49 0.02,-0.2 0.03,-0.48 0.03,-0.83zm4.9 1.29c0.24,-0.01 0.39,-0.04 0.45,-0.07 0.04,-0.03 0.1,-0.12 0.18,-0.29 0.16,-0.34 0.36,-0.81 0.61,-1.4l1.37 -3.37 0.57 0 1.76 4.18c0.23,0.53 0.37,0.82 0.42,0.87 0.05,0.05 0.22,0.08 0.49,0.1l0 0.35c-0.42,-0.02 -0.82,-0.02 -1.2,-0.02 -0.45,0 -0.88,0.01 -1.28,0.02l0 -0.35c0.31,-0.01 0.49,-0.03 0.54,-0.05 0.05,-0.02 0.07,-0.06 0.07,-0.12 0,-0.05 -0.05,-0.21 -0.16,-0.5l-0.26 -0.65c-0.32,-0.01 -0.68,-0.01 -1.07,-0.01 -0.34,0 -0.66,0 -0.94,0.01l-0.17 0.44c-0.05,0.12 -0.1,0.3 -0.17,0.53 -0.02,0.05 -0.02,0.1 -0.02,0.14 0,0.06 0.03,0.1 0.08,0.12 0.05,0.02 0.23,0.05 0.55,0.07l0 0.35c-0.25,-0.02 -0.57,-0.02 -0.95,-0.02 -0.36,0 -0.65,0.01 -0.86,0.02l0 -0.35zm2.55 -3.77l-0.82 2c0.24,0.01 0.5,0.02 0.79,0.02 0.3,0 0.59,-0.01 0.86,-0.02l-0.83 -2zm7.62 2.21l0 -0.32c0.47,0.01 0.89,0.02 1.27,0.02 0.34,0 0.71,-0.01 1.11,-0.02l0 0.25c-0.11,0.04 -0.22,0.08 -0.33,0.13 -0.03,0.26 -0.05,0.48 -0.05,0.67 0,0.13 0.02,0.39 0.05,0.78 -0.51,0.19 -0.94,0.31 -1.29,0.38 -0.35,0.07 -0.71,0.1 -1.08,0.1 -1,0 -1.79,-0.26 -2.35,-0.78 -0.57,-0.52 -0.85,-1.19 -0.85,-2.02 0,-0.85 0.29,-1.53 0.87,-2.04 0.58,-0.51 1.41,-0.77 2.49,-0.77 0.38,0 0.75,0.03 1.1,0.09 0.35,0.06 0.68,0.15 1,0.27l0.03 0.06c-0.08,0.33 -0.13,0.74 -0.17,1.23l-0.33 0c-0,-0.25 -0.02,-0.46 -0.05,-0.65 -0.17,-0.19 -0.38,-0.34 -0.64,-0.43 -0.26,-0.1 -0.57,-0.14 -0.92,-0.14 -0.67,0 -1.2,0.2 -1.59,0.61 -0.4,0.4 -0.59,0.96 -0.59,1.66 0,0.75 0.21,1.35 0.63,1.81 0.42,0.46 0.93,0.69 1.54,0.69 0.33,0 0.67,-0.08 1.04,-0.24 0.02,-0.2 0.03,-0.39 0.03,-0.57 0,-0.4 -0.02,-0.62 -0.07,-0.66 -0.05,-0.04 -0.32,-0.08 -0.83,-0.1zm3.63 1.91l0 -0.2c0.14,-0.06 0.26,-0.14 0.38,-0.22 0.05,-0.41 0.08,-1.26 0.08,-2.56 0,-0.89 -0.01,-1.48 -0.03,-1.76 -0.01,-0.15 -0.03,-0.25 -0.08,-0.29 -0.04,-0.04 -0.24,-0.07 -0.58,-0.1l0 -0.32c0.61,0.02 1.1,0.02 1.45,0.02l2.14 -0.02c0.23,0 0.43,0.01 0.61,0.03l0.03 0.04c-0.05,0.28 -0.09,0.66 -0.12,1.12l-0.31 0c-0.01,-0.38 -0.03,-0.58 -0.05,-0.61 -0.02,-0.03 -0.08,-0.05 -0.18,-0.07 -0.22,-0.05 -0.55,-0.07 -0.99,-0.07 -0.22,0 -0.47,0.01 -0.76,0.02 -0.03,0.81 -0.05,1.45 -0.06,1.93 0.28,0.02 0.54,0.02 0.78,0.02 0.36,0 0.58,-0.01 0.65,-0.03 0.04,-0.02 0.07,-0.05 0.09,-0.11 0.02,-0.05 0.03,-0.21 0.05,-0.49l0.33 0c-0.01,0.44 -0.02,0.73 -0.02,0.86l0.02 0.88 -0.33 0c-0.02,-0.34 -0.04,-0.54 -0.07,-0.59 -0.02,-0.03 -0.05,-0.05 -0.1,-0.07 -0.13,-0.03 -0.42,-0.04 -0.88,-0.04 -0.14,0 -0.31,0.01 -0.5,0.02 -0.01,0.14 -0.01,0.28 -0.01,0.42 0,0.74 0.01,1.31 0.04,1.71l0.77 0.01c0.44,0 0.84,-0.02 1.2,-0.07 0.06,-0.24 0.12,-0.51 0.18,-0.81l0.33 0c-0.06,0.46 -0.09,0.91 -0.1,1.33 -0.24,0.02 -0.46,0.02 -0.68,0.02 -0.14,0 -0.42,-0 -0.84,-0.01 -0.39,-0.01 -0.75,-0.01 -1.08,-0.01 -0.43,0 -0.89,0.01 -1.37,0.02z"/>
   </g>
  </g>
 </g>
</svg>
