<?xml version="1.0" encoding="UTF-8"?>
<!DOCTYPE svg PUBLIC "-//W3C//DTD SVG 1.1//EN" "http://www.w3.org/Graphics/SVG/1.1/DTD/svg11.dtd">
<!-- Creator: CorelDRAW 2021 (64-Bit) -->
<svg xmlns="http://www.w3.org/2000/svg" xml:space="preserve" width="5.6863mm" height="5.1926mm" version="1.1" style="shape-rendering:geometricPrecision; text-rendering:geometricPrecision; image-rendering:optimizeQuality; fill-rule:evenodd; clip-rule:evenodd"
viewBox="0 0 1.31 1.2"
 xmlns:xlink="http://www.w3.org/1999/xlink"
 xmlns:xodm="http://www.corel.com/coreldraw/odm/2003">
 <defs>
  <style type="text/css">
   <![CDATA[
    .fil0 {fill:#AD9AD6}
   ]]>
  </style>
 </defs>
 <g id="Слой_x0020_1">
  <metadata id="CorelCorpID_0Corel-Layer"/>
  <path class="fil0" d="M0.49 0c0.27,0 0.49,0.22 0.49,0.49 0,0.11 -0.03,0.2 -0.09,0.28l0.42 0.36 -0.05 0.07 -0.43 -0.36c-0.09,0.09 -0.21,0.14 -0.35,0.14 -0.27,0 -0.49,-0.22 -0.49,-0.49 0,-0.27 0.22,-0.49 0.49,-0.49zm0 0.04c0.25,0 0.44,0.2 0.44,0.44 0,0.25 -0.2,0.44 -0.44,0.44 -0.25,0 -0.44,-0.2 -0.44,-0.44 0,-0.25 0.2,-0.44 0.44,-0.44z"/>
 </g>
</svg>
